# xmcd
#
# Track frame offsets:
#	150
#	16293
#	34980
#	49943
#	64643
#	89326
#	118632
#	137997
#	160544
#	179355
#	200353
#	216101
#
# Disc length: 3345 seconds
#
# Revision: 1
# Processed by: cddbd v1.5PL3 Copyright (c) Steve Scherf et al.
# Submitted via: audiograbber 1.82.02
#
DISCID=a50d0f0c
DTITLE=Blues Radio - Blues Radio - volume 1
DYEAR=2004
DGENRE=Blues
TTITLE0=Miguel M Blues Band - Sunny love
TTITLE1=Mojo Band - Can't stand to see you go
TTITLE2=Bluetones - Jump and smile
TTITLE3=J.B. Boogie  - J.B. Boogie 
TTITLE4=Miguel M Blues Band - Spain
TTITLE5=Bluetones - Black coffee first
TTITLE6=Miguel M Blues Band - Crazy world
TTITLE7=Bluetones - Walking with two different shoes
TTITLE8=Mojo Band - Who's been talking
TTITLE9=J.B. Boogie  - Clariswing
TTITLE10=Mojo Band - Parch farm blues
TTITLE11=J.B. Boogie  - Blues of hope
EXTD=Dixiefrog Records\nwww.bluesweb.com
EXTT0=
EXTT1=
EXTT2=
EXTT3=
EXTT4=
EXTT5=
EXTT6=
EXTT7=
EXTT8=
EXTT9=
EXTT10=
EXTT11=
PLAYORDER=
